<svg  width="105" height="40"  id="Camada_2" xmlns="http://www.w3.org/2000/svg" viewBox="0 0 190.26 190.26">
  <g id="Camada_1-2" data-name="Camada_1">
    <g>
      <path d="M125.69,5.02l-33.26,33.26c-9.94.46-19.79,3.52-28.43,9.18-3.22,2.11-6.29,4.59-9.12,7.43-2.83,2.83-5.3,5.89-7.42,9.11-5.65,8.65-8.72,18.49-9.18,28.43-.45,9.38,1.42,18.85,5.59,27.49l29.76-29.76,25.92,25.92-57.79,57.79c-4.9-3.32-9.55-7.14-13.89-11.48-4.53-4.53-8.5-9.41-11.92-14.54-4.66-6.98-8.31-14.43-10.91-22.17C-5.02,96,0,62.34,20.09,36.63c2.38-3.04,4.96-5.98,7.76-8.77,2.8-2.8,5.74-5.39,8.78-7.77C62.34,0,96-5.02,125.69,5.02Z" style="fill: #e7215e;"/>
      <path d="M162.4,27.86c4.34,4.34,8.16,8.99,11.48,13.89,4.22,6.18,7.62,12.76,10.2,19.57,11.55,30.46,6.92,65.66-13.91,92.3-2.38,3.04-4.96,5.98-7.77,8.78-2.79,2.79-5.73,5.38-8.77,7.76-26.64,20.83-61.84,25.46-92.3,13.91l32.05-32.05c11.43.36,22.95-2.72,32.89-9.22,3.22-2.11,6.28-4.58,9.11-7.42s5.31-5.9,7.43-9.12c6.5-9.94,9.57-21.47,9.22-32.89-.25-8.18-2.25-16.3-6-23.77l-29.94,29.94-25.92-25.92,57.69-57.69c5.13,3.42,10.01,7.4,14.54,11.92Z" style="fill: #4932fa;"/>
    </g>
  </g>
</svg>